PathFileType	4	(X/Y/Z)	D:\TRACE\v60_Jaco2_6-2-23\JustBodyDRS_Motion3_2-platform.trc
DataRate	CameraRate	NumFrames	NumMarkers	Units	OrigDataRate	OrigDataStartFrame	OrigNumFrames
100.00	100.00	      53	5	mm	100.00	5251	      7000
Frame#	Time	Left_Front			Right_Front			Left_Aft			Right_Aft			Post			
		X1	Y1	Z1	X2	Y2	Z2	X3	Y3	Z3	X4	Y4	Z4	X5	Y5	Z5	

5251	52.500	-759.95184	-21.92127	-657.24457	811.22961	-23.68036	-634.80603	-691.29120	32.61795	475.40164	723.64301	34.15991	580.68420	36.89154	1258.91907	-1031.96545	
5252	52.510	-759.78778	-21.68130	-657.15961	811.38434	-23.43073	-634.71558	-691.12073	32.37479	475.40741	723.86334	33.87960	580.79437	36.95037	1259.37219	-1031.63379	
5253	52.520	-759.92853	-21.62112	-657.05786	811.27679	-23.11438	-634.41022	-691.07019	32.20829	475.43427	723.92065	33.58788	580.84637	36.93536	1259.80237	-1031.31970	
5254	52.530	-759.87598	-21.63235	-657.13312	811.32617	-22.89293	-634.40167	-690.88470	31.98160	475.52951	724.05353	33.37426	580.89496	36.81942	1260.18872	-1030.48340	
5255	52.540	-759.22711	-21.38686	-656.87793	811.40735	-22.53425	-634.38531	-690.69458	31.74744	475.66431	724.21124	33.20613	581.00433	37.45991	1260.58582	-1030.01086	
5256	52.550	-759.26813	-20.94685	-657.19513	811.50769	-22.30432	-634.41632	-690.54932	31.57016	475.66718	724.37372	33.08472	581.09918	37.40387	1261.05347	-1029.13440	
5257	52.560	-759.05878	-20.70722	-657.14447	811.73248	-22.04155	-634.39142	-690.32465	31.31041	475.66232	724.49048	32.91402	581.08783	37.35116	1261.38440	-1028.44604	
5258	52.570	-759.00677	-20.35177	-657.12323	811.83923	-21.83935	-634.34076	-690.29272	31.10513	475.73215	724.52118	32.73916	581.13324	37.81438	1261.42163	-1027.55212	
5259	52.580	-758.87549	-20.00080	-657.08636	811.91223	-21.61769	-634.26288	-690.18549	30.93457	475.83820	724.59686	32.57916	581.25616	38.08705	1261.75415	-1026.84375	
5260	52.590	-758.69897	-19.83505	-656.89447	812.12640	-21.28886	-634.03027	-689.98853	30.81629	475.94016	724.74982	32.40778	581.36938	37.99643	1262.33228	-1026.25500	
5261	52.600	-758.82056	-19.75319	-656.77350	812.13226	-21.18558	-634.11359	-689.89301	30.72018	475.93155	724.99323	31.96300	581.19934	37.98983	1262.91504	-1025.84790	
5262	52.610	-758.77106	-19.65872	-657.02087	812.21179	-20.91881	-634.03333	-689.84076	30.65597	475.97534	725.09509	31.76406	581.20239	37.87461	1263.36743	-1025.45569	
5263	52.620	-758.56042	-19.28149	-657.07690	812.25140	-20.69963	-633.97955	-689.87250	30.57195	476.00357	724.99255	31.39542	581.32172	37.64729	1263.46191	-1025.32605	
5264	52.630	-758.61011	-18.93849	-656.92548	812.15643	-20.44301	-633.94995	-689.72180	30.26401	476.16422	724.83032	31.04142	581.59595	37.94093	1263.93372	-1025.26599	
5265	52.640	-758.49243	-18.61428	-656.75195	812.22083	-20.14782	-633.92767	-689.52466	29.78518	476.28552	724.88806	30.74761	581.60999	38.24994	1264.43494	-1024.75989	
5266	52.650	-758.27783	-18.31889	-656.62909	812.37842	-19.86116	-633.73566	-689.40808	29.44983	476.38474	724.92120	30.55331	581.64026	38.20391	1265.06116	-1024.23022	
5267	52.660	-758.26251	-18.05009	-656.53687	812.57629	-19.74714	-634.11713	-689.33008	29.28700	476.50143	725.07532	30.36978	581.58447	38.32777	1265.35669	-1023.64087	
5268	52.670	-758.30664	-17.75018	-656.46368	812.77979	-19.42732	-634.04010	-689.26953	29.14045	476.60687	724.80750	30.34796	581.77094	38.13684	1265.60352	-1023.11334	
5269	52.680	-758.42535	-17.68559	-656.51532	812.91693	-19.24409	-633.93469	-689.28473	29.03836	476.66006	724.78906	30.13834	581.70776	38.25496	1266.03223	-1022.41504	
5270	52.690	-758.45972	-17.53761	-656.40656	812.66254	-18.95824	-633.56024	-689.33820	28.88900	476.81161	724.62732	29.73463	581.75476	38.14338	1266.38538	-1021.77124	
5271	52.700	-758.52222	-17.40790	-656.32135	812.56445	-18.78747	-633.53668	-689.37323	28.80108	476.86066	724.58850	29.60523	581.82953	38.43235	1266.62549	-1020.62616	
5272	52.710	-758.55359	-17.30466	-656.55524	812.53558	-18.51590	-633.49280	-689.46338	28.72168	476.88461	725.52924	30.40609	582.20459	38.61169	1266.88428	-1020.16473	
5273	52.720	-758.47198	-16.98074	-656.46112	812.52338	-18.23977	-633.45135	-689.47852	28.62631	476.85431	725.46344	30.27035	582.29272	38.53336	1267.22864	-1019.70264	
5274	52.730	-758.52637	-16.69744	-656.37646	812.49622	-17.90756	-633.48267	-689.51166	28.55988	476.87585	725.48572	30.10051	582.39197	38.25489	1267.70996	-1019.40613	
5275	52.740	-758.42621	-16.39952	-656.26202	812.37872	-17.63791	-633.47455	-689.55640	28.33242	476.93912	725.31842	29.82370	582.47736	38.06237	1268.15112	-1019.14130	
5276	52.750	-758.38501	-16.23925	-656.20514	812.48676	-17.51373	-633.34009	-689.57690	28.32405	477.00531	725.25275	29.52074	582.47662	38.02713	1268.50000	-1018.80725	
5277	52.760	-758.45917	-16.12185	-656.18597	812.52417	-17.45510	-633.24524	-689.57806	28.21797	477.06143	724.49500	28.61437	582.37347	38.07339	1268.73328	-1018.57001	
5278	52.770	-758.46631	-15.80883	-656.11206	812.77417	-17.42222	-633.64215	-689.30835	27.88029	477.21747	724.82080	28.62619	582.51984	38.16319	1268.90149	-1018.41486	
5279	52.780	-758.44745	-15.33790	-656.04034	812.55402	-16.88956	-633.21521	-689.45813	27.73157	477.28387	724.86719	28.43285	582.54382	38.19190	1269.30261	-1018.07013	
5280	52.790	-758.51324	-15.06092	-656.00671	812.53052	-16.78108	-633.16412	-689.38751	27.53774	477.31387	724.71539	28.19753	582.60339	38.03529	1269.64990	-1017.58002	
5281	52.800	-758.63550	-14.86668	-655.95477	812.38171	-16.73896	-633.18384	-689.40521	27.52554	477.44989	724.65448	28.06304	582.70135	38.06420	1269.88269	-1017.08301	
5282	52.810	-758.70776	-14.79715	-655.99518	812.27435	-16.46426	-633.13318	-689.50171	27.42380	477.44717	724.40540	27.87479	582.62018	38.13192	1270.01208	-1016.55951	
5283	52.820	-758.81055	-14.78183	-656.05585	812.12909	-16.37648	-633.11865	-689.65503	27.29144	477.46866	724.05341	27.86068	582.91559	37.72791	1270.07153	-1015.81622	
5284	52.830	-758.96271	-14.68803	-656.09851	812.02332	-16.40211	-633.11127	-689.91821	27.15957	477.46948	723.88269	27.84142	583.10266	37.82792	1270.40405	-1015.78729	
5285	52.840	-759.11517	-14.56577	-656.05640	811.73260	-16.27388	-633.10583	-690.13873	27.02815	477.49673	724.63483	28.33498	583.00909	37.48157	1270.75110	-1015.37360	
5286	52.850	-759.14807	-14.45874	-655.99432	811.57990	-15.89754	-633.13574	-690.26337	26.90108	477.55286	724.58813	28.22104	582.96002	37.12407	1270.88403	-1015.04504	
5287	52.860	-759.19843	-14.41545	-656.03632	811.63300	-15.55203	-632.84967	-690.36438	26.74751	477.58786	724.47546	28.11568	583.04913	37.08586	1271.12280	-1014.76422	
5288	52.870	-759.34216	-14.58125	-656.15973	811.44855	-15.54727	-633.04529	-690.43719	26.61824	477.70200	724.38025	27.98020	583.07562	37.01004	1271.41565	-1014.69257	
5289	52.880	-759.46429	-14.49186	-656.14502	811.34265	-15.39486	-633.01868	-690.56744	26.50738	477.74634	723.32422	27.15503	583.07434	36.90038	1271.66199	-1014.50397	
5290	52.890	-759.58423	-14.31436	-656.07672	811.26666	-15.20416	-632.94751	-690.71588	26.45515	477.85175	723.66010	27.37886	583.12476	36.74993	1271.87280	-1014.29303	
5291	52.900	-759.66083	-14.21734	-656.00134	811.00098	-15.15394	-632.81146	-690.88898	26.40269	477.87259	723.78967	27.50969	583.22314	36.59883	1272.03516	-1014.17419	
5292	52.910	-759.68353	-14.18765	-655.98151	810.87952	-15.12191	-632.82507	-691.02252	26.36043	477.89920	722.75665	26.75902	582.90796	36.47929	1272.15601	-1014.01978	
5293	52.920	-759.78204	-14.09269	-655.88196	810.72119	-15.06720	-632.83551	-691.21088	26.36185	477.87445	722.63629	26.74314	582.81476	36.28154	1272.32690	-1013.67157	
5294	52.930	-759.88959	-13.99227	-655.77264	810.60120	-14.92581	-632.84039	-691.39142	26.33326	477.82867	722.63971	26.86553	582.71838	36.26459	1272.47900	-1013.27307	
5295	52.940	-760.05383	-13.89106	-655.64026	810.36218	-14.86865	-632.83807	-691.58557	26.31727	477.81509	723.32471	27.63393	582.85529	36.06309	1272.53345	-1013.12170	
5296	52.950	-760.39099	-13.73531	-655.46045	810.15009	-14.89747	-632.76282	-691.76331	26.22955	477.81754	723.03485	27.39250	583.14813	35.85474	1272.65759	-1012.91101	
5297	52.960	-760.70734	-13.50276	-655.26166	810.07715	-14.79396	-632.70831	-691.92365	26.19036	477.83972	722.64557	26.99535	583.05585	35.65951	1272.76929	-1012.84491	
5298	52.970	-760.73767	-13.42661	-655.36316	809.92133	-14.58672	-632.73035	-692.14447	26.13371	477.84723	722.49664	27.00634	583.14734	35.44694	1272.93701	-1012.74951	
5299	52.980	-761.04657	-13.17315	-655.46521	809.78369	-14.42089	-632.73737	-692.32806	26.10096	477.85165	722.45428	26.90394	583.19690	35.17546	1273.10828	-1012.79785	
5300	52.990	-761.29138	-13.08026	-655.57404	809.55762	-14.36247	-632.75293	-692.48572	26.03938	477.87491	722.14014	26.96723	583.33698	34.96231	1273.31018	-1012.81812	
5301	53.000	-761.56543	-13.05174	-655.63086	809.57745	-14.38291	-633.04816	-692.68127	25.95600	477.88382	722.00195	26.89239	583.33557	34.86924	1273.38342	-1012.79059	
5302	53.010	-761.77301	-13.05842	-655.66144	809.19440	-14.33077	-633.13287	-692.93494	25.85259	477.90274	721.65491	26.86689	583.42285	34.75370	1273.43445	-1012.67438	
5303	53.020	-761.96265	-12.95257	-655.67651	809.01660	-14.27144	-633.11639	-693.23779	25.84974	477.93787	721.54431	26.84445	583.35822	34.43557	1273.54871	-1012.41754	
